<svg width="15" height="16" viewBox="0 0 15 16" fill="none" xmlns="http://www.w3.org/2000/svg">
<path d="M11.8056 7.25281L8.79329 4.24046C8.50392 3.9511 8.03352 3.9511 7.74416 4.24046C7.45479 4.52982 7.45479 5.00022 7.74416 5.28959L9.48924 7.03467H3.24196C2.8324 7.03467 2.5 7.36707 2.5 7.77663C2.5 8.18619 2.8324 8.51859 3.24196 8.51859H9.48924L7.74861 10.2592C7.45925 10.5486 7.45925 11.019 7.74861 11.3084C7.89403 11.4538 8.08397 11.525 8.27392 11.525C8.46386 11.525 8.6538 11.4523 8.79922 11.3084L11.8056 8.30194C12.095 8.01257 12.095 7.54217 11.8056 7.25281Z" fill="#3F36F4"/>
</svg>
