<svg width="60" height="61" viewBox="0 0 60 61" fill="none" xmlns="http://www.w3.org/2000/svg">
<path fill-rule="evenodd" clip-rule="evenodd" d="M60 30.5C60 47.0685 46.5685 60.5 30 60.5C13.4315 60.5 0 47.0685 0 30.5C0 13.9315 13.4315 0.5 30 0.5C46.5685 0.5 60 13.9315 60 30.5ZM21.0854 42.2303C21.6931 42.9764 22.5777 43.3687 23.4777 43.3687H23.4931C24.1315 43.3687 24.7777 43.1764 25.3315 42.7611L46.5084 26.9457C47.87 25.9303 48.1469 23.9995 47.1315 22.638C46.1161 21.2764 44.1854 20.9995 42.8238 22.0149L24.0084 36.0611L17.7469 28.3457C16.6777 27.0226 14.7392 26.8226 13.4161 27.8918C12.0931 28.9687 11.8931 30.8995 12.9623 32.2226L21.0854 42.2303Z" fill="#17993A"/>
</svg>
