<svg width="186" height="25" viewBox="0 0 186 25" fill="none" xmlns="http://www.w3.org/2000/svg">
<g clip-path="url(#clip0_688_19931)">
<path d="M0 19.3731V0.308594H6.2208C8.23392 0.308594 9.98755 0.713788 11.4817 1.52418C12.9741 2.33457 14.1308 3.45182 14.9499 4.87593C15.7691 6.30174 16.1778 7.95134 16.1778 9.82812C16.1778 11.7049 15.7691 13.3375 14.9499 14.7803C14.1308 16.2231 12.9741 17.3488 11.4817 18.1575C9.98924 18.9679 8.23561 19.3731 6.2208 19.3731H0ZM3.48182 16.3028H6.29712C7.59284 16.3028 8.71557 16.0332 9.66362 15.4958C10.6117 14.9583 11.3494 14.209 11.8785 13.2443C12.4077 12.2813 12.6723 11.142 12.6723 9.82812C12.6723 8.51421 12.4077 7.35457 11.8785 6.40008C11.3494 5.44388 10.6117 4.70301 9.66362 4.17405C8.71727 3.64509 7.59454 3.38061 6.29712 3.38061H3.48182V16.3045V16.3028Z" fill="white" fill-opacity="0.7"/>
<path d="M18.6602 3.89092V0.308594H22.0131V3.89092H18.6602ZM18.6602 19.3731V5.45236H22.0131V19.3731H18.6602Z" fill="white" fill-opacity="0.7"/>
<path d="M31.8701 24.9986C30.8287 24.9986 29.8654 24.8273 28.9767 24.4865C28.0881 24.1458 27.3266 23.6728 26.6855 23.0658C26.0461 22.4606 25.5797 21.7485 25.2897 20.9297L28.412 19.7514C28.6172 20.399 29.0225 20.9246 29.628 21.3247C30.2335 21.7265 30.9797 21.9265 31.8684 21.9265C32.5501 21.9265 33.1522 21.7994 33.6729 21.5417C34.1935 21.2857 34.5989 20.9144 34.8889 20.4295C35.1789 19.9429 35.3247 19.3597 35.3247 18.6765V15.5045L35.9641 16.2725C35.4859 17.1083 34.8465 17.7407 34.0443 18.1662C33.2421 18.5917 32.3297 18.8053 31.3053 18.8053C30.0079 18.8053 28.8478 18.507 27.8235 17.9102C26.7991 17.3134 25.9969 16.4946 25.4169 15.4536C24.8369 14.4126 24.5469 13.2445 24.5469 11.9476C24.5469 10.6506 24.8369 9.46553 25.4169 8.44152C25.9969 7.41921 26.7906 6.61221 27.798 6.02392C28.8054 5.43562 29.9485 5.14062 31.229 5.14062C32.2703 5.14062 33.1878 5.35763 33.9815 5.79334C34.7752 6.22906 35.4367 6.85465 35.9658 7.67352L35.5045 8.51781V5.44749H38.6794V18.6765C38.6794 19.887 38.3843 20.9703 37.7958 21.9265C37.2073 22.881 36.4051 23.6321 35.3892 24.178C34.3733 24.7239 33.1997 24.9969 31.8701 24.9969V24.9986ZM31.7157 15.7096C32.4331 15.7096 33.0589 15.5519 33.5965 15.2366C34.1342 14.9212 34.5565 14.4821 34.8634 13.9193C35.1704 13.3564 35.3247 12.7088 35.3247 11.9747C35.3247 11.2406 35.167 10.615 34.8516 10.042C34.5361 9.47061 34.1087 9.02303 33.5728 8.69922C33.0352 8.3754 32.4162 8.21264 31.7174 8.21264C31.0187 8.21264 30.3861 8.3754 29.823 8.69922C29.26 9.02473 28.8207 9.47231 28.5053 10.042C28.1898 10.6133 28.0321 11.2575 28.0321 11.9747C28.0321 12.6918 28.1898 13.331 28.5053 13.8938C28.8207 14.4567 29.2566 14.9009 29.8112 15.2247C30.3657 15.5485 31.0017 15.7113 31.7191 15.7113L31.7157 15.7096Z" fill="white" fill-opacity="0.7"/>
<path d="M41.8008 3.89092V0.308594H45.1537V3.89092H41.8008ZM41.8008 19.3731V5.45236H45.1537V19.3731H41.8008Z" fill="white" fill-opacity="0.7"/>
<path d="M54.6008 19.5227C53.0304 19.5227 51.8144 19.0921 50.9528 18.2308C50.0913 17.3696 49.6605 16.154 49.6605 14.5841V8.44342H47.2539V5.44939H47.51C48.1935 5.44939 48.7209 5.26968 49.0974 4.91196C49.4722 4.55423 49.6605 4.03375 49.6605 3.35221V2.27734H53.0134V5.45109H56.2137V8.44512H53.0134V14.4078C53.0134 14.8672 53.0931 15.2605 53.2559 15.5843C53.4187 15.9082 53.6731 16.1557 54.0242 16.3269C54.3736 16.4981 54.8213 16.5829 55.3674 16.5829C55.4861 16.5829 55.6269 16.5744 55.7897 16.5575C55.9525 16.5405 56.1102 16.5236 56.2629 16.5066V19.3718C56.0237 19.4057 55.7507 19.4396 55.4437 19.4735C55.1368 19.5074 54.8552 19.5244 54.5991 19.5244L54.6008 19.5227Z" fill="white" fill-opacity="0.7"/>
<path d="M62.997 19.679C62.0235 19.679 61.1789 19.5162 60.4632 19.1924C59.7475 18.8686 59.1912 18.4041 58.7994 17.7988C58.4077 17.1936 58.2109 16.49 58.2109 15.6864C58.2109 14.8828 58.3805 14.2334 58.7231 13.6265C59.064 13.0212 59.5931 12.5126 60.3105 12.104C61.0262 11.6955 61.9319 11.4039 63.0241 11.2343L67.5812 10.4934V13.0518L63.6652 13.7163C62.9987 13.8367 62.5034 14.0486 62.1812 14.3572C61.8573 14.6641 61.6944 15.0642 61.6944 15.5592C61.6944 16.0543 61.8776 16.4171 62.2439 16.6985C62.6103 16.9799 63.0665 17.1207 63.6126 17.1207C64.3113 17.1207 64.932 16.9715 65.468 16.6731C66.0039 16.3747 66.4228 15.961 66.723 15.4321C67.0215 14.9031 67.1707 14.3233 67.1707 13.6926V10.1103C67.1707 9.51351 66.935 9.01507 66.4669 8.61327C65.9971 8.21316 65.3781 8.01141 64.6115 8.01141C63.8941 8.01141 63.2598 8.20299 62.7036 8.58784C62.149 8.97099 61.7436 9.4796 61.4875 10.1103L58.7486 8.77941C59.0216 8.04532 59.4524 7.40955 60.0409 6.87212C60.6294 6.33468 61.3247 5.91254 62.1269 5.60567C62.9291 5.29881 63.7991 5.14453 64.737 5.14453C65.8801 5.14453 66.8875 5.35306 67.7575 5.77182C68.6276 6.19058 69.3059 6.7704 69.7927 7.51127C70.2794 8.25385 70.522 9.12019 70.522 10.1086V19.3721H67.3471V16.9918L68.0645 16.9409C67.7066 17.5394 67.2793 18.0379 66.784 18.438C66.2888 18.8398 65.7258 19.1466 65.0949 19.3603C64.464 19.5739 63.7635 19.6807 62.9953 19.6807L62.997 19.679Z" fill="white" fill-opacity="0.7"/>
<path d="M73.6211 19.3714V0H76.974V19.3714H73.6211Z" fill="white" fill-opacity="0.7"/>
<path d="M87.6797 19.3731V0.308594H90.3932L100.888 14.4345L99.4802 14.7159V0.308594H102.962V19.3731H100.223L89.8811 5.1455L91.1615 4.86407V19.3731H87.6797Z" fill="white" fill-opacity="0.7"/>
<path d="M110.587 19.679C109.613 19.679 108.769 19.5162 108.053 19.1924C107.337 18.8686 106.781 18.4041 106.389 17.7988C105.998 17.1936 105.801 16.49 105.801 15.6864C105.801 14.8828 105.97 14.2334 106.313 13.6265C106.654 13.0212 107.183 12.5126 107.9 12.104C108.616 11.6955 109.522 11.4039 110.614 11.2343L115.171 10.4934V13.0518L111.255 13.7163C110.588 13.8367 110.093 14.0486 109.771 14.3572C109.447 14.6641 109.284 15.0642 109.284 15.5592C109.284 16.0543 109.467 16.4171 109.834 16.6985C110.2 16.9799 110.656 17.1207 111.202 17.1207C111.901 17.1207 112.522 16.9715 113.058 16.6731C113.595 16.3747 114.013 15.961 114.313 15.4321C114.611 14.9031 114.761 14.3233 114.761 13.6926V10.1103C114.761 9.51351 114.525 9.01507 114.057 8.61327C113.587 8.21316 112.968 8.01141 112.201 8.01141C111.484 8.01141 110.85 8.20299 110.293 8.58784C109.739 8.97099 109.333 9.4796 109.077 10.1103L106.338 8.77941C106.611 8.04532 107.042 7.40955 107.631 6.87212C108.219 6.33468 108.915 5.91254 109.717 5.60567C110.519 5.29881 111.389 5.14453 112.327 5.14453C113.47 5.14453 114.477 5.35306 115.347 5.77182C116.217 6.19058 116.896 6.7704 117.383 7.51127C117.869 8.25385 118.112 9.12019 118.112 10.1086V19.3721H114.937V16.9918L115.654 16.9409C115.296 17.5394 114.869 18.0379 114.374 18.438C113.879 18.8398 113.316 19.1466 112.685 19.3603C112.054 19.5739 111.353 19.6807 110.585 19.6807L110.587 19.679Z" fill="white" fill-opacity="0.7"/>
<path d="M127.304 19.5227C125.733 19.5227 124.517 19.0921 123.656 18.2308C122.794 17.3696 122.364 16.154 122.364 14.5841V8.44342H119.957V5.44939H120.213C120.897 5.44939 121.424 5.26968 121.801 4.91196C122.175 4.55423 122.364 4.03375 122.364 3.35221V2.27734H125.717V5.45109H128.917V8.44512H125.717V14.4078C125.717 14.8672 125.796 15.2605 125.959 15.5843C126.122 15.9082 126.376 16.1557 126.727 16.3269C127.077 16.4981 127.524 16.5829 128.071 16.5829C128.189 16.5829 128.33 16.5744 128.493 16.5575C128.656 16.5405 128.813 16.5236 128.966 16.5066V19.3718C128.727 19.4057 128.454 19.4396 128.147 19.4735C127.84 19.5074 127.558 19.5244 127.302 19.5244L127.304 19.5227Z" fill="white" fill-opacity="0.7"/>
<path d="M131.527 3.89092V0.308594H134.88V3.89092H131.527ZM131.527 19.3731V5.45236H134.88V19.3731H131.527Z" fill="white" fill-opacity="0.7"/>
<path d="M142.173 19.3699L136.695 5.44922H140.355L144.322 16.4013H142.965L146.959 5.44922H150.619L145.141 19.3699H142.172H142.173Z" fill="white" fill-opacity="0.7"/>
<path d="M158.816 19.6768C157.383 19.6768 156.127 19.353 155.052 18.7036C153.977 18.056 153.141 17.1778 152.544 16.0673C151.947 14.9585 151.648 13.7294 151.648 12.3816C151.648 11.0337 151.95 9.74187 152.557 8.65853C153.163 7.57518 153.991 6.71902 155.04 6.08664C156.09 5.45596 157.262 5.14062 158.56 5.14062C159.652 5.14062 160.612 5.32033 161.439 5.67806C162.267 6.03578 162.971 6.53083 163.551 7.16151C164.131 7.79219 164.575 8.51442 164.882 9.32312C165.189 10.1335 165.343 11.0083 165.343 11.9459C165.343 12.1849 165.33 12.4324 165.304 12.6884C165.279 12.9444 165.231 13.1665 165.164 13.353H154.413V10.793H163.269L161.682 11.9967C161.836 11.2118 161.797 10.5116 161.566 9.89785C161.336 9.28412 160.961 8.79755 160.44 8.43813C159.92 8.0804 159.292 7.9007 158.56 7.9007C157.827 7.9007 157.237 8.07532 156.691 8.42626C156.144 8.77551 155.731 9.28751 155.449 9.96227C155.168 10.637 155.061 11.4508 155.129 12.4053C155.061 13.2581 155.174 14.0142 155.475 14.6703C155.773 15.3281 156.217 15.835 156.806 16.1928C157.394 16.5505 158.073 16.7302 158.841 16.7302C159.609 16.7302 160.262 16.5691 160.8 16.2436C161.337 15.9198 161.76 15.4858 162.067 14.9399L164.78 16.2708C164.507 16.9353 164.08 17.5253 163.5 18.0373C162.92 18.5493 162.233 18.9495 161.439 19.2394C160.646 19.5293 159.77 19.6751 158.816 19.6751V19.6768Z" fill="white" fill-opacity="0.7"/>
<path d="M173.176 19.679C171.692 19.679 170.398 19.3246 169.297 18.6177C168.196 17.9107 167.442 16.9494 167.031 15.7389L169.54 14.5369C169.897 15.3202 170.398 15.9356 171.037 16.3781C171.677 16.8223 172.389 17.0444 173.174 17.0444C173.788 17.0444 174.275 16.907 174.633 16.6358C174.99 16.3628 175.17 16.0051 175.17 15.5609C175.17 15.288 175.097 15.0625 174.953 14.8828C174.809 14.7031 174.612 14.5505 174.365 14.4216C174.117 14.2945 173.847 14.1877 173.557 14.1012L171.28 13.4603C170.103 13.1196 169.211 12.5991 168.605 11.8989C168 11.2004 167.696 10.3731 167.696 9.41688C167.696 8.5641 167.913 7.81814 168.349 7.17898C168.785 6.53813 169.39 6.03969 170.167 5.68196C170.944 5.32424 171.834 5.14453 172.842 5.14453C174.156 5.14453 175.316 5.45987 176.323 6.09055C177.329 6.72123 178.047 7.60961 178.474 8.75229L175.915 9.95431C175.676 9.32363 175.275 8.8201 174.712 8.44543C174.149 8.07075 173.518 7.88256 172.818 7.88256C172.255 7.88256 171.81 8.00972 171.487 8.26572C171.163 8.52172 171 8.85401 171 9.26429C171 9.52029 171.068 9.74239 171.205 9.93057C171.341 10.1188 171.534 10.2713 171.782 10.39C172.029 10.5104 172.314 10.6206 172.64 10.7223L174.867 11.3869C176.01 11.7294 176.893 12.2397 177.516 12.9229C178.138 13.6061 178.45 14.442 178.45 15.4304C178.45 16.2662 178.228 17.0037 177.785 17.6445C177.341 18.2837 176.727 18.7821 175.942 19.1415C175.157 19.4993 174.236 19.679 173.177 19.679H173.176Z" fill="white" fill-opacity="0.7"/>
<path d="M182.621 19.3714V15.7891H185.999V19.3714H182.621Z" fill="white" fill-opacity="0.7"/>
</g>
<defs>
<clipPath id="clip0_688_19931">
<rect width="186" height="25" fill="white"/>
</clipPath>
</defs>
</svg>
