<svg width="15" height="16" viewBox="0 0 15 16" fill="none" xmlns="http://www.w3.org/2000/svg">
<path d="M11.8038 7.12158H8.19344V3.51124C8.19344 3.12769 7.88216 2.81641 7.49861 2.81641C7.11506 2.81641 6.80378 3.12769 6.80378 3.51124V7.12158H3.19483C2.81128 7.12158 2.5 7.43286 2.5 7.81641C2.5 8.19995 2.81128 8.51124 3.19483 8.51124H6.80517V12.1216C6.80517 12.5051 7.11645 12.8164 7.5 12.8164C7.88355 12.8164 8.19483 12.5051 8.19483 12.1216V8.51124H11.8052C12.1887 8.51124 12.5 8.19995 12.5 7.81641C12.5 7.43286 12.1887 7.12158 11.8052 7.12158H11.8038Z" fill="white"/>
</svg>
