<svg width="25" height="25" viewBox="0 0 25 25" fill="none" xmlns="http://www.w3.org/2000/svg">
<path d="M12.5 3.5C7.52923 3.5 3.5 7.52923 3.5 12.5C3.5 17.4708 7.52923 21.5 12.5 21.5C17.4708 21.5 21.5 17.4708 21.5 12.5C21.5 7.52923 17.4708 3.5 12.5 3.5ZM13.3885 18.0015H11.7269V9.56923H13.3885V18.0015ZM12.5646 8.26538C11.99 8.27231 11.5169 7.83154 11.5077 7.28692C11.5146 6.74462 11.99 6.30846 12.5646 6.30846C13.1392 6.30846 13.6054 6.74231 13.6054 7.28692C13.6054 7.83154 13.1323 8.27231 12.5646 8.26538Z" fill="#3F36F4"/>
</svg>
