<svg width="24" height="25" viewBox="0 0 24 25" fill="none" xmlns="http://www.w3.org/2000/svg">
<path d="M6.38339 9.62744H4.66998C3.74768 9.62744 3 10.3751 3 11.2974V20.9499C3 21.8722 3.74768 22.6199 4.66998 22.6199H6.38339C7.30569 22.6199 8.05337 21.8722 8.05337 20.9499V11.2974C8.05337 10.3751 7.30569 9.62744 6.38339 9.62744Z" fill="#E1E1E1"/>
<path d="M15.3081 9.62749V4.16998C15.3081 3.24815 14.5599 2.5 13.6381 2.5H13.254C12.3322 2.5 11.584 3.24815 11.584 4.16998V3.82263C11.584 3.82263 11.4972 6.8453 9.22266 9.62749V20.9466C9.22266 21.8685 9.97081 22.6166 10.8926 22.6166H19.1657C20.0107 22.6166 20.7255 21.9854 20.8257 21.1437L21.988 11.4945C22.1082 10.4992 21.33 9.62415 20.328 9.62415H15.3081V9.62749Z" fill="#E1E1E1"/>
</svg>
