<svg width="24" height="25" viewBox="0 0 24 25" fill="none" xmlns="http://www.w3.org/2000/svg">
<path fill-rule="evenodd" clip-rule="evenodd" d="M21 12.5C21 17.4706 16.9706 21.5 12 21.5C7.02944 21.5 3 17.4706 3 12.5C3 7.52944 7.02944 3.5 12 3.5C16.9706 3.5 21 7.52944 21 12.5ZM9.32268 16.0191C9.50499 16.2429 9.77037 16.3606 10.0404 16.3606H10.045C10.2365 16.3606 10.4304 16.3029 10.5965 16.1783L16.9496 11.4337C17.3581 11.1291 17.4411 10.5499 17.1365 10.1414C16.8319 9.73293 16.2527 9.64986 15.8442 9.95447L10.1996 14.1683L8.32114 11.8537C8.00037 11.4568 7.41883 11.3968 7.02191 11.7175C6.62499 12.0406 6.56499 12.6199 6.88576 13.0168L9.32268 16.0191Z" fill="#3F36F4"/>
</svg>
