<svg width="24" height="24" viewBox="0 0 24 24" fill="none" xmlns="http://www.w3.org/2000/svg">
<path d="M12.801 3.32845C12.3625 2.88992 11.6496 2.88992 11.211 3.32845L6.64582 7.89364C6.20728 8.33217 6.20728 9.04506 6.64582 9.48359C7.08435 9.92212 7.79724 9.92212 8.23577 9.48359L10.8804 6.83892V15.1822C10.8804 15.8029 11.3842 16.3066 12.0049 16.3066C12.6256 16.3066 13.1293 15.8029 13.1293 15.1822V6.83892L15.7673 9.47684C16.2058 9.91537 16.9187 9.91537 17.3572 9.47684C17.5776 9.25645 17.6855 8.9686 17.6855 8.68074C17.6855 8.39289 17.5754 8.10503 17.3572 7.88464L12.801 3.32845Z" fill="#8C8C8C"/>
<path d="M19.8756 13.9043C19.2549 13.9043 18.7511 14.408 18.7511 15.0287V18.1884H5.24888V15.0287C5.24888 14.408 4.74513 13.9043 4.12444 13.9043C3.50375 13.9043 3 14.408 3 15.0287V20.4372H21V15.0287C21 14.408 20.4963 13.9043 19.8756 13.9043Z" fill="#8C8C8C"/>
</svg>
