<svg width="80" height="81" viewBox="0 0 80 81" fill="none" xmlns="http://www.w3.org/2000/svg">
<path fill-rule="evenodd" clip-rule="evenodd" d="M70 40.5C70 57.0685 56.5685 70.5 40 70.5C23.4315 70.5 10 57.0685 10 40.5C10 23.9315 23.4315 10.5 40 10.5C56.5685 10.5 70 23.9315 70 40.5ZM31.0756 52.2319C31.6833 52.9781 32.5679 53.3704 33.4679 53.3704H33.4833C34.1218 53.3704 34.7679 53.1781 35.3218 52.7627L56.4987 36.9473C57.8602 35.9319 58.1371 34.0011 57.1218 32.6396C56.1064 31.2781 54.1756 31.0011 52.8141 32.0165L33.9987 46.0627L27.7371 38.3473C26.6679 37.0242 24.7294 36.8242 23.4064 37.8935C22.0833 38.9704 21.8833 40.9011 22.9525 42.2242L31.0756 52.2319Z" fill="#17993A"/>
</svg>
