<svg width="18" height="18" viewBox="0 0 18 18" fill="none" xmlns="http://www.w3.org/2000/svg">
<path d="M8.4017 12.4055C8.7306 12.7344 9.26527 12.7344 9.59417 12.4055L13.0181 8.98163C13.347 8.65273 13.347 8.11806 13.0181 7.78917C12.6892 7.46027 12.1545 7.46027 11.8256 7.78917L9.84211 9.77266V3.5152C9.84211 3.04968 9.46429 2.67188 8.99878 2.67188C8.53326 2.67188 8.15545 3.04968 8.15545 3.5152V9.77266L6.177 7.79423C5.8481 7.46533 5.31343 7.46533 4.98453 7.79423C4.81924 7.95952 4.73828 8.17541 4.73828 8.3913C4.73828 8.60719 4.82093 8.82308 4.98453 8.98837L8.4017 12.4055Z" fill="white"/>
<path d="M14.9067 10.8516C14.4412 10.8516 14.0633 11.2294 14.0633 11.6949V14.0646H3.93666V11.6949C3.93666 11.2294 3.55885 10.8516 3.09333 10.8516C2.62781 10.8516 2.25 11.2294 2.25 11.6949V15.7513H15.75V11.6949C15.75 11.2294 15.3722 10.8516 14.9067 10.8516Z" fill="white"/>
</svg>
