<svg width="24" height="24" viewBox="0 0 24 24" fill="none" xmlns="http://www.w3.org/2000/svg">
<path d="M4 18.8931C4 20.0569 4.94259 20.9995 6.10634 20.9995H17.2752C18.439 20.9995 19.3816 20.0569 19.3816 18.8931V10.5625H4V18.8931ZM12.7334 13.4456L14.1157 12.5635H15.2136V18.1585H14.0473V13.6667H14.0157L12.7334 14.4698V13.4429V13.4456ZM9.71609 15.7336H9.1974V14.8752H9.71609C10.269 14.8752 10.656 14.5751 10.6508 14.1328C10.6534 13.7036 10.3269 13.4113 9.83194 13.414C9.33695 13.4113 8.93148 13.6878 8.91305 14.117H7.79932C7.81775 13.1559 8.68398 12.4872 9.83194 12.4872C10.9799 12.4872 11.775 13.1796 11.7724 14.0643C11.775 14.6909 11.3406 15.1359 10.714 15.2465V15.2939C11.5381 15.3939 11.9883 15.8942 11.9804 16.5919C11.9883 17.5503 11.0799 18.2375 9.81614 18.2375C8.55233 18.2375 7.70453 17.5608 7.68347 16.584H8.85775C8.87618 17.0027 9.28166 17.2765 9.82404 17.2791C10.3796 17.2765 10.7798 16.9658 10.7745 16.5129C10.7772 16.0574 10.3717 15.7362 9.71609 15.731V15.7336Z" fill="#8C8C8C"/>
<path d="M17.2779 5.43283H16.8118V4.05317C16.8118 3.4713 16.3405 3 15.7587 3C15.1768 3 14.7055 3.4713 14.7055 4.05317V5.43283H8.67872V4.05317C8.67872 3.4713 8.20742 3 7.62554 3C7.04367 3 6.57237 3.4713 6.57237 4.05317V5.43283H6.10634C4.94259 5.43283 4 6.37542 4 7.53918V8.79772H19.3816V7.53918C19.3816 6.37542 18.439 5.43283 17.2752 5.43283H17.2779Z" fill="#8C8C8C"/>
</svg>
