<svg width="24" height="25" viewBox="0 0 24 25" fill="none" xmlns="http://www.w3.org/2000/svg">
<path d="M21.0384 12.1716C21.0384 14.727 21.0401 17.2817 21.0375 19.8372C21.0367 20.7005 20.527 21.3495 19.6973 21.5386C19.207 21.6508 18.7589 21.5343 18.3403 21.2541C16.9545 20.3233 15.5637 19.4 14.1745 18.4742C13.8007 18.2252 13.4277 17.9754 13.0538 17.7281C12.3668 17.2732 11.6773 17.2699 10.9903 17.7273C9.21466 18.9088 7.44236 20.0937 5.66416 21.271C4.69447 21.9133 3.44795 21.4989 3.09012 20.4153C3.02598 20.2203 3.0091 20.0026 3.0091 19.7958C3.00488 15.6756 3.00741 11.5546 3.00741 7.43448C3.00741 6.45888 3.02429 5.48243 3.00066 4.50766C2.97197 3.42319 3.88427 2.5286 4.87254 2.51932C5.784 2.51088 6.69631 2.50244 7.60862 2.5016C10.4359 2.49991 13.2639 2.49907 16.092 2.5016C17.1444 2.50244 18.1977 2.49653 19.2492 2.52692C20.1826 2.55477 21.0198 3.40462 21.0283 4.33719C21.046 6.35169 21.0375 8.3662 21.0392 10.3807C21.0392 10.9774 21.0392 11.574 21.0392 12.1707H21.0384V12.1716Z" fill="#408CFF"/>
</svg>
