<svg width="40" height="40" viewBox="0 0 40 40" fill="none" xmlns="http://www.w3.org/2000/svg">
<g clip-path="url(#clip0_892_13493)">
<rect width="40" height="40" rx="20" fill="#ECEBFE"/>
<path d="M20.3898 41.0752C17.6063 41.0752 10.9594 41.0763 8.17704 41.0752C7.37662 41.0752 6.94537 40.6963 6.94537 39.9024C6.94537 37.5545 6.96389 31.7317 7.07823 29.3881C7.22961 26.2801 9.78006 23.4106 12.8609 22.8672C14.0588 22.6559 19.1669 22.6526 20.3898 22.6635C21.7565 22.6755 26.4049 22.6276 27.7193 22.9314C31.1039 23.7122 33.2939 26.6351 33.3506 30.218C33.3832 32.2402 33.3026 37.7374 33.295 39.7597C33.2917 40.7061 32.9128 41.0752 31.9817 41.0752C29.1982 41.0763 23.1722 41.0752 20.3898 41.0752Z" fill="#3F36F4"/>
<path d="M20.0706 20.9219C16.6215 20.9194 13.8856 18.1682 13.8906 14.709C13.897 11.2764 16.6671 8.53665 20.1276 8.54298C23.5526 8.54931 26.2873 11.3309 26.2747 14.7964C26.2633 18.1986 23.502 20.9245 20.0706 20.9219Z" fill="#3F36F4"/>
</g>
<defs>
<clipPath id="clip0_892_13493">
<rect width="40" height="40" rx="20" fill="white"/>
</clipPath>
</defs>
</svg>
