<svg width="24" height="24" viewBox="0 0 24 24" fill="none" xmlns="http://www.w3.org/2000/svg">
<path d="M11.201 16.5407C11.6395 16.9792 12.3524 16.9792 12.7909 16.5407L17.3561 11.9755C17.7947 11.537 17.7947 10.8241 17.3561 10.3856C16.9176 9.94702 16.2047 9.94702 15.7662 10.3856L13.1215 13.0302V4.68693C13.1215 4.06625 12.6178 3.5625 11.9971 3.5625C11.3764 3.5625 10.8726 4.06625 10.8726 4.68693V13.0302L8.2347 10.3923C7.79617 9.95377 7.08327 9.95377 6.64474 10.3923C6.42435 10.6127 6.31641 10.9005 6.31641 11.1884C6.31641 11.4763 6.4266 11.7641 6.64474 11.9845L11.201 16.5407Z" fill="#8C8C8C"/>
<path d="M19.8756 14.4688C19.2549 14.4688 18.7511 14.9725 18.7511 15.5932V18.7528H5.24888V15.5932C5.24888 14.9725 4.74513 14.4688 4.12444 14.4688C3.50375 14.4688 3 14.9725 3 15.5932V21.0017H21V15.5932C21 14.9725 20.4963 14.4688 19.8756 14.4688Z" fill="#8C8C8C"/>
</svg>
