<svg width="16" height="15" viewBox="0 0 16 15" fill="none" xmlns="http://www.w3.org/2000/svg">
<rect width="15" height="15" transform="translate(0.5)" />
<path d="M7.49816 10.3379C7.77224 10.612 8.2178 10.612 8.49188 10.3379L11.3451 7.48469C11.6192 7.21061 11.6192 6.76505 11.3451 6.49097C11.0711 6.21689 10.6255 6.21689 10.3514 6.49097L8.6985 8.14389V2.92933C8.6985 2.5414 8.38366 2.22656 7.99573 2.22656C7.60779 2.22656 7.29295 2.5414 7.29295 2.92933V8.14389L5.64424 6.49519C5.37016 6.22111 4.9246 6.22111 4.65052 6.49519C4.51278 6.63293 4.44531 6.81284 4.44531 6.99275C4.44531 7.17266 4.51418 7.35257 4.65052 7.49031L7.49816 10.3379Z" fill="#191919"/>
<path d="M12.9222 9.04102C12.5343 9.04102 12.2195 9.35586 12.2195 9.74379V11.7186H3.78055V9.74379C3.78055 9.35586 3.4657 9.04102 3.07777 9.04102C2.68984 9.04102 2.375 9.35586 2.375 9.74379V13.1241H13.625V9.74379C13.625 9.35586 13.3102 9.04102 12.9222 9.04102Z" fill="#191919"/>
</svg>
