<svg width="15" height="15" viewBox="0 0 15 15" fill="none" xmlns="http://www.w3.org/2000/svg">
<rect width="15" height="15"/>
<path d="M7.96028 4.08105C8.94828 5.06853 9.93042 6.0508 10.921 7.04153C10.9002 7.06299 10.869 7.09747 10.8364 7.13C9.12922 8.83694 7.41811 10.54 5.71807 12.2541C5.42649 12.5481 5.09716 12.7088 4.69232 12.768C3.98159 12.8721 3.27345 12.995 2.56532 13.1166C2.16504 13.1856 1.81423 12.8304 1.88387 12.4284C2.01405 11.6738 2.13836 10.9179 2.25877 10.162C2.30628 9.86279 2.42604 9.60714 2.64277 9.39117C4.38837 7.6491 6.13202 5.90509 7.87566 4.16172C7.9056 4.13179 7.9375 4.10317 7.96028 4.08105Z" fill="#191919"/>
<path d="M8.72331 3.32489C9.10146 2.94434 9.46984 2.54883 9.86491 2.18194C10.3199 1.75976 11.0098 1.77667 11.4602 2.21057C11.9112 2.64446 12.3538 3.0881 12.7886 3.53826C13.2331 3.99882 13.237 4.70202 12.7977 5.16388C12.441 5.53923 12.0668 5.89896 11.7003 6.2652C11.6919 6.27365 11.6795 6.27821 11.6769 6.28016C10.6915 5.29463 9.70936 4.31236 8.72266 3.32554L8.72331 3.32489Z" fill="black"/>
</svg>
