<svg width="18" height="18" viewBox="0 0 18 18" fill="none" xmlns="http://www.w3.org/2000/svg">
<path d="M7.87623 2.31427L6.64886 6.08084H2.68749C2.43676 6.08046 2.19237 6.15957 1.98942 6.30681C1.78648 6.45405 1.63543 6.66183 1.55798 6.9003C1.48053 7.13877 1.48068 7.39565 1.55839 7.63403C1.6361 7.87242 1.78737 8.08003 1.99048 8.22705L5.19516 10.5545L3.97004 14.3166C3.89222 14.5549 3.89192 14.8117 3.96919 15.0502C4.04647 15.2887 4.19733 15.4965 4.40012 15.6439C4.6029 15.7912 4.84718 15.8706 5.09786 15.8704C5.34853 15.8703 5.59272 15.7907 5.79533 15.6431L9.00226 13.3201L12.2069 15.6476C12.4098 15.7954 12.6543 15.8751 12.9053 15.8749C13.1564 15.8748 13.4009 15.795 13.6035 15.6469C13.8062 15.4988 13.9567 15.2902 14.0331 15.0511C14.1095 14.812 14.108 14.5548 14.0288 14.3166L12.8049 10.5545L16.0095 8.22705C16.213 8.07981 16.3644 7.87179 16.442 7.63296C16.5196 7.39413 16.5194 7.13684 16.4414 6.89814C16.3633 6.65945 16.2115 6.45169 16.0079 6.30481C15.8042 6.15792 15.5591 6.0795 15.308 6.08084H11.3512L10.1283 2.31427C10.0501 2.07734 9.89923 1.87109 9.69705 1.7249C9.49488 1.5787 9.25175 1.5 9.00226 1.5C8.75277 1.5 8.50963 1.5787 8.30746 1.7249C8.10529 1.87109 7.95439 2.07734 7.87623 2.31427Z" fill="#FFC700"/>
</svg>
