<svg width="18" height="19" viewBox="0 0 18 19" fill="none" xmlns="http://www.w3.org/2000/svg">
<path d="M9 2.75C5.27192 2.75 2.25 5.77192 2.25 9.5C2.25 13.2281 5.27192 16.25 9 16.25C12.7281 16.25 15.75 13.2281 15.75 9.5C15.75 5.77192 12.7281 2.75 9 2.75ZM8.98269 13.8806C8.52058 13.8754 8.13635 13.5015 8.14327 13.0412C8.13808 12.579 8.52231 12.2017 8.98269 12.2017C9.44308 12.2017 9.81692 12.5808 9.82212 13.0412C9.81692 13.5033 9.43789 13.8754 8.98269 13.8806ZM10.5438 9.4325C9.83423 9.86346 9.55558 10.291 9.53827 11.255V11.326H8.33192V11.255C8.34923 9.70423 8.80442 9.23173 9.58673 8.74712C10.0835 8.44596 10.4625 8.00808 10.4625 7.38673C10.4625 6.64769 9.89481 6.18038 9.18519 6.18038C8.54654 6.18038 7.92519 6.57154 7.87154 7.44558H6.59423C6.64096 5.93635 7.77808 5.11423 9.18519 5.11423C10.7238 5.11423 11.7519 6.03673 11.7519 7.385C11.7519 8.33692 11.2967 8.97038 10.5456 9.4325H10.5438Z" fill="#BABABA"/>
</svg>
