<svg width="16" height="15" viewBox="0 0 16 15" fill="none" xmlns="http://www.w3.org/2000/svg">
<rect width="15" height="15" transform="translate(0.5)"/>
<path fill-rule="evenodd" clip-rule="evenodd" d="M4.26468 2.40431C4.26468 1.6201 4.9004 0.984375 5.68461 0.984375H10.3154C11.0996 0.984375 11.7353 1.6201 11.7353 2.40431V2.79832H12.8251C13.1192 2.79832 13.3576 3.03672 13.3576 3.3308V4.57502C13.3576 4.8691 13.1192 5.1075 12.8251 5.1075H12.4954C12.4975 5.13681 12.4985 5.1664 12.4985 5.19624V12.5746C12.4985 13.2615 11.943 13.817 11.2561 13.817H4.74032C4.05343 13.817 3.49788 13.2615 3.49788 12.5746V5.19624C3.49788 5.1664 3.49892 5.13681 3.50099 5.1075H3.1731C2.87902 5.1075 2.64062 4.8691 2.64062 4.57502V3.3308C2.64062 3.03672 2.87902 2.79832 3.1731 2.79832H4.26468V2.40431ZM10.3154 2.40431V2.79832H5.68461V2.40431H10.3154ZM5.61891 12.5568C5.97389 12.5568 6.26321 12.2693 6.26321 11.9125V6.105C6.26321 5.75002 5.97389 5.4607 5.61891 5.4607C5.26392 5.4607 4.97461 5.74824 4.97461 6.105V11.9125C4.97461 12.2675 5.26392 12.5568 5.61891 12.5568ZM7.99908 12.5568C8.35407 12.5568 8.64338 12.2693 8.64338 11.9125V6.105C8.64338 5.75002 8.35407 5.4607 7.99908 5.4607C7.6441 5.4607 7.35478 5.74824 7.35478 6.105V11.9125C7.35478 12.2675 7.6441 12.5568 7.99908 12.5568ZM10.3793 12.5568C10.7342 12.5568 11.0235 12.2693 11.0235 11.9125V6.105C11.0235 5.75002 10.7342 5.4607 10.3793 5.4607C10.0243 5.4607 9.73495 5.74824 9.73495 6.105V11.9125C9.73495 12.2675 10.0243 12.5568 10.3793 12.5568Z" fill="#191919"/>
</svg>
