<svg width="25" height="24" viewBox="0 0 25 24" fill="none" xmlns="http://www.w3.org/2000/svg">
<path d="M22.2763 20.1268L17.8367 15.6871C18.9477 14.2496 19.6121 12.4511 19.6121 10.4974C19.6121 5.81239 15.7997 2 11.1146 2C6.42958 2 2.61719 5.81239 2.61719 10.4974C2.61719 15.1825 6.42958 18.9949 11.1146 18.9949C13.015 18.9949 14.7696 18.3676 16.1862 17.3121L20.6398 21.7656C20.8667 21.9925 21.1629 22.1036 21.4592 22.1036C21.7555 22.1036 22.0518 21.9902 22.2787 21.7656C22.73 21.3143 22.73 20.5805 22.2787 20.1291L22.2763 20.1268ZM4.93194 10.4974C4.93194 7.08782 7.705 4.31475 11.1146 4.31475C14.5242 4.31475 17.2973 7.08782 17.2973 10.4974C17.2973 13.9071 14.5242 16.6801 11.1146 16.6801C7.705 16.6801 4.93194 13.9071 4.93194 10.4974Z" fill="#AFB2FD"/>
</svg>
