<svg width="61" height="60" viewBox="0 0 61 60" fill="none" xmlns="http://www.w3.org/2000/svg">
<path d="M30.5 0C13.9308 0 0.5 13.4308 0.5 30C0.5 46.5692 13.9308 60 30.5 60C47.0692 60 60.5 46.5692 60.5 30C60.5 13.4308 47.0692 0 30.5 0ZM33.5 10.8615L33.0308 37.5231H27.9077L27.4385 10.8615H33.4923H33.5ZM30.5 48.7C28.4846 48.6769 26.8 47.0462 26.8231 45.0231C26.8 43.0077 28.4769 41.3462 30.5 41.3462C32.5231 41.3462 34.1462 43 34.1769 45.0231C34.1538 47.0385 32.4923 48.6692 30.5 48.7Z" fill="#408CFF"/>
</svg>
