<svg width="18" height="18" viewBox="0 0 18 18" fill="none" xmlns="http://www.w3.org/2000/svg">
<path fill-rule="evenodd" clip-rule="evenodd" d="M15.75 9C15.75 12.7279 12.7279 15.75 9 15.75C5.27208 15.75 2.25 12.7279 2.25 9C2.25 5.27208 5.27208 2.25 9 2.25C12.7279 2.25 15.75 5.27208 15.75 9ZM6.99494 11.6394C7.13167 11.8073 7.33071 11.8956 7.53321 11.8956H7.53667C7.68032 11.8956 7.82571 11.8523 7.95032 11.7588L12.7151 8.20037C13.0215 7.97191 13.0838 7.53748 12.8553 7.23114C12.6269 6.92479 12.1924 6.86248 11.8861 7.09094L7.65263 10.2513L6.24379 8.51537C6.00321 8.21768 5.56706 8.17268 5.26936 8.41325C4.97167 8.65556 4.92667 9.08998 5.16725 9.38768L6.99494 11.6394Z" fill="#BABABA"/>
</svg>
