<svg width="18" height="19" viewBox="0 0 18 19" fill="none" xmlns="http://www.w3.org/2000/svg">
<path d="M12.0632 5.25854L8.99973 8.32201L5.93625 5.25854C5.6108 4.93309 5.08254 4.93309 4.75709 5.25854C4.43164 5.58399 4.43164 6.11225 4.75709 6.4377L7.82056 9.50118L4.75827 12.5635C4.43282 12.8889 4.43282 13.4172 4.75827 13.7426C5.08372 14.0681 5.61198 14.0681 5.93743 13.7426L9.00091 10.6792L12.0644 13.7426C12.3898 14.0681 12.9181 14.0681 13.2435 13.7426C13.569 13.4172 13.569 12.8889 13.2435 12.5635L10.1801 9.5L13.2435 6.43653C13.569 6.11108 13.569 5.58281 13.2435 5.25736C12.9181 4.93191 12.3898 4.93191 12.0644 5.25736L12.0632 5.25854Z" fill="#3F36F4"/>
</svg>
