<svg width="94" height="40" viewBox="0 0 94 40" fill="none" xmlns="http://www.w3.org/2000/svg">
<g clip-path="url(#clip0_683_8152)">
<path d="M11.2472 29.469C17.2475 29.469 22.1117 24.5869 22.1117 18.5646C22.1117 12.5422 17.2475 7.66016 11.2472 7.66016C5.24698 7.66016 0.382812 12.5422 0.382812 18.5646C0.382812 24.5869 5.24698 29.469 11.2472 29.469Z" fill="white" fill-opacity="0.7"/>
<path d="M23.8225 32.0221C25.7459 32.0221 27.3051 30.4572 27.3051 28.5267C27.3051 26.5962 25.7459 25.0312 23.8225 25.0312C21.8991 25.0312 20.3398 26.5962 20.3398 28.5267C20.3398 30.4572 21.8991 32.0221 23.8225 32.0221Z" fill="white" fill-opacity="0.5"/>
<path d="M42.8922 19.214H40.0792V31.9839H34.8487V19.214H32.9531V14.8559H34.8487V14.3638C34.8487 12.2575 35.4498 10.654 36.6519 9.56117C37.8541 8.4657 39.6178 7.91797 41.9431 7.91797C42.3306 7.91797 42.6154 7.92855 42.7999 7.94972V12.4004C41.8007 12.3395 41.0968 12.4824 40.6908 12.8291C40.2822 13.1783 40.0792 13.8002 40.0792 14.7025V14.8559H42.8922V19.214Z" fill="white" fill-opacity="0.7"/>
<path d="M63.7194 14.8516L53.0158 40.1135H47.3898L51.3048 31.3974L44.3633 14.8542H50.2054L54.1494 25.5654L58.0644 14.8542H63.722L63.7194 14.8516Z" fill="white" fill-opacity="0.7"/>
<path d="M92.1195 16.6049C93.3744 17.8935 93.9992 19.6849 93.9992 21.9764V31.9838H88.8003V22.6829C88.8003 21.5768 88.5103 20.7248 87.9277 20.1188C87.3477 19.5155 86.5462 19.2139 85.5259 19.2139C84.5057 19.2139 83.7068 19.5155 83.1242 20.1188C82.5442 20.7221 82.2516 21.5768 82.2516 22.6829V31.9838H77.0527V22.6829C77.0527 21.5768 76.7627 20.7248 76.18 20.1188C75.6 19.5155 74.7986 19.2139 73.7783 19.2139C72.7581 19.2139 71.9592 19.5155 71.3766 20.1188C70.7966 20.7221 70.504 21.5768 70.504 22.6829V31.9838H65.2734V14.8532H70.504V17.0018C71.0339 16.2847 71.7272 15.7185 72.5841 15.2977C73.4409 14.8797 74.4084 14.668 75.4893 14.668C76.7732 14.668 77.92 14.9432 78.9298 15.4962C79.9395 16.0492 80.7278 16.8377 81.2999 17.8591C81.8904 16.9171 82.6971 16.1498 83.7148 15.557C84.735 14.9643 85.8449 14.668 87.0471 14.668C89.1667 14.668 90.854 15.3136 92.1089 16.6022L92.1195 16.6049Z" fill="white" fill-opacity="0.7"/>
</g>
<defs>
<clipPath id="clip0_683_8152">
<rect width="93.617" height="40" fill="white" transform="translate(0.382812)"/>
</clipPath>
</defs>
</svg>
