<svg width="94" height="40" viewBox="0 0 94 40" fill="none" xmlns="http://www.w3.org/2000/svg">
<g clip-path="url(#clip0_2203_31581)">
<path d="M11.0597 29.469C17.06 29.469 21.9242 24.5869 21.9242 18.5646C21.9242 12.5422 17.06 7.66016 11.0597 7.66016C5.05948 7.66016 0.195312 12.5422 0.195312 18.5646C0.195312 24.5869 5.05948 29.469 11.0597 29.469Z" fill="#EEEEEE"/>
<path d="M23.6389 32.0221C25.5623 32.0221 27.1215 30.4572 27.1215 28.5267C27.1215 26.5962 25.5623 25.0312 23.6389 25.0312C21.7155 25.0312 20.1562 26.5962 20.1562 28.5267C20.1562 30.4572 21.7155 32.0221 23.6389 32.0221Z" fill="#EEEEEE" fill-opacity="0.5"/>
<path d="M42.7047 19.214H39.8917V31.9839H34.6612V19.214H32.7656V14.8559H34.6612V14.3638C34.6612 12.2575 35.2623 10.654 36.4644 9.56117C37.6666 8.4657 39.4303 7.91797 41.7556 7.91797C42.1431 7.91797 42.4279 7.92855 42.6124 7.94972V12.4004C41.6132 12.3395 40.9093 12.4824 40.5033 12.8291C40.0947 13.1783 39.8917 13.8002 39.8917 14.7025V14.8559H42.7047V19.214Z" fill="#EEEEEE"/>
<path d="M63.528 14.8516L52.8244 40.1135H47.1984L51.1134 31.3974L44.1719 14.8542H50.014L53.958 25.5654L57.873 14.8542H63.5306L63.528 14.8516Z" fill="#EEEEEE"/>
<path d="M91.932 16.6049C93.1869 17.8935 93.8117 19.6849 93.8117 21.9764V31.9838H88.6128V22.6829C88.6128 21.5768 88.3228 20.7248 87.7402 20.1188C87.1602 19.5155 86.3587 19.2139 85.3384 19.2139C84.3182 19.2139 83.5193 19.5155 82.9367 20.1188C82.3567 20.7221 82.0641 21.5768 82.0641 22.6829V31.9838H76.8652V22.6829C76.8652 21.5768 76.5752 20.7248 75.9925 20.1188C75.4125 19.5155 74.6111 19.2139 73.5908 19.2139C72.5706 19.2139 71.7717 19.5155 71.1891 20.1188C70.6091 20.7221 70.3165 21.5768 70.3165 22.6829V31.9838H65.0859V14.8532H70.3165V17.0018C70.8464 16.2847 71.5397 15.7185 72.3966 15.2977C73.2534 14.8797 74.2209 14.668 75.3018 14.668C76.5857 14.668 77.7325 14.9432 78.7423 15.4962C79.752 16.0492 80.5403 16.8377 81.1124 17.8591C81.7029 16.9171 82.5096 16.1498 83.5273 15.557C84.5475 14.9643 85.6574 14.668 86.8596 14.668C88.9792 14.668 90.6665 15.3136 91.9214 16.6022L91.932 16.6049Z" fill="#EEEEEE"/>
</g>
<defs>
<clipPath id="clip0_2203_31581">
<rect width="93.617" height="40" fill="white" transform="translate(0.195312)"/>
</clipPath>
</defs>
</svg>
