<svg width="94" height="40" viewBox="0 0 94 40" fill="none" xmlns="http://www.w3.org/2000/svg">
<g clip-path="url(#clip0_839_10616)">
<path d="M10.8644 29.469C16.8647 29.469 21.7289 24.5869 21.7289 18.5646C21.7289 12.5422 16.8647 7.66016 10.8644 7.66016C4.86417 7.66016 0 12.5422 0 18.5646C0 24.5869 4.86417 29.469 10.8644 29.469Z" fill="#3F36F4"/>
<path d="M23.4397 32.0221C25.3631 32.0221 26.9223 30.4572 26.9223 28.5267C26.9223 26.5962 25.3631 25.0312 23.4397 25.0312C21.5163 25.0312 19.957 26.5962 19.957 28.5267C19.957 30.4572 21.5163 32.0221 23.4397 32.0221Z" fill="#9FA2FE"/>
<path d="M42.5094 19.214H39.6964V31.9839H34.4659V19.214H32.5703V14.8559H34.4659V14.3638C34.4659 12.2575 35.0669 10.654 36.2691 9.56117C37.4713 8.4657 39.235 7.91797 41.5603 7.91797C41.9478 7.91797 42.2326 7.92855 42.4171 7.94972V12.4004C41.4179 12.3395 40.714 12.4824 40.308 12.8291C39.8994 13.1783 39.6964 13.8002 39.6964 14.7025V14.8559H42.5094V19.214Z" fill="#333333"/>
<path d="M63.3366 14.8516L52.633 40.1135H47.007L50.922 31.3974L43.9805 14.8542H49.8226L53.7666 25.5654L57.6816 14.8542H63.3392L63.3366 14.8516Z" fill="#333333"/>
<path d="M91.7366 16.6049C92.9916 17.8935 93.6164 19.6849 93.6164 21.9764V31.9838H88.4175V22.6829C88.4175 21.5768 88.1275 20.7248 87.5448 20.1188C86.9648 19.5155 86.1634 19.2139 85.1431 19.2139C84.1228 19.2139 83.324 19.5155 82.7414 20.1188C82.1614 20.7221 81.8688 21.5768 81.8688 22.6829V31.9838H76.6699V22.6829C76.6699 21.5768 76.3799 20.7248 75.7972 20.1188C75.2172 19.5155 74.4158 19.2139 73.3955 19.2139C72.3752 19.2139 71.5764 19.5155 70.9938 20.1188C70.4138 20.7221 70.1212 21.5768 70.1212 22.6829V31.9838H64.8906V14.8532H70.1212V17.0018C70.6511 16.2847 71.3444 15.7185 72.2012 15.2977C73.0581 14.8797 74.0256 14.668 75.1065 14.668C76.3904 14.668 77.5372 14.9432 78.547 15.4962C79.5567 16.0492 80.3449 16.8377 80.917 17.8591C81.5076 16.9171 82.3143 16.1498 83.3319 15.557C84.3522 14.9643 85.4621 14.668 86.6643 14.668C88.7839 14.668 90.4712 15.3136 91.7261 16.6022L91.7366 16.6049Z" fill="#333333"/>
</g>
<defs>
<clipPath id="clip0_839_10616">
<rect width="93.617" height="40" fill="white"/>
</clipPath>
</defs>
</svg>
