<svg width="20" height="20" viewBox="0 0 20 20" fill="none" xmlns="http://www.w3.org/2000/svg">
<path d="M13.3661 15.8307C12.888 15.8307 12.5 15.4427 12.5 14.9646V5.03018C12.5 4.55209 12.888 4.16406 13.3661 4.16406C13.8442 4.16406 14.2322 4.55209 14.2322 5.03018V14.9646C14.2322 15.4427 13.8442 15.8307 13.3661 15.8307Z" fill="#BABABA"/>
<path d="M10.7498 9.38843L6.64544 4.49791C6.31568 4.10294 5.72695 4.05078 5.33385 4.3824C4.93888 4.71216 4.88671 5.30089 5.21834 5.69399L8.83267 10.0014L5.22579 14.3032C4.89417 14.6981 4.94633 15.285 5.3413 15.6148C5.73627 15.9445 6.32313 15.8942 6.65289 15.4993L10.7665 10.5976C11.0665 10.2399 11.0497 9.72751 10.7516 9.38657L10.7498 9.38843Z" fill="#BABABA"/>
</svg>
