<svg width="20" height="20" viewBox="0 0 20 20" fill="none" xmlns="http://www.w3.org/2000/svg">
<path d="M6.69913 15.8307C6.22103 15.8307 5.83301 15.4427 5.83301 14.9646V5.03018C5.83301 4.55209 6.22103 4.16406 6.69913 4.16406C7.17723 4.16406 7.56525 4.55209 7.56525 5.03018V14.9646C7.56525 15.4427 7.17723 15.8307 6.69913 15.8307Z" fill="#BABABA"/>
<path d="M9.40064 10.6116L13.505 15.5021C13.8347 15.8971 14.4234 15.9492 14.8165 15.6176C15.2115 15.2878 15.2637 14.6991 14.9321 14.306L11.3177 9.99862L14.9246 5.69682C15.2562 5.30186 15.2041 4.71499 14.8091 4.38523C14.4141 4.05547 13.8273 4.10577 13.4975 4.50074L9.38387 9.40244C9.08392 9.76015 9.10069 10.2725 9.39878 10.6134L9.40064 10.6116Z" fill="#BABABA"/>
</svg>
