<svg width="12" height="13" viewBox="0 0 12 13" fill="none" xmlns="http://www.w3.org/2000/svg">
<path d="M5.25082 2.04285L4.43257 4.55389H1.79166C1.62451 4.55364 1.46158 4.60638 1.32628 4.70454C1.19098 4.8027 1.09028 4.94122 1.03865 5.1002C0.987023 5.25918 0.987118 5.43043 1.03892 5.58936C1.09073 5.74828 1.19158 5.88669 1.32699 5.9847L3.46344 7.53636L2.64669 10.0444C2.59481 10.2033 2.59461 10.3745 2.64613 10.5335C2.69764 10.6924 2.79822 10.831 2.93341 10.9293C3.0686 11.0275 3.23145 11.0804 3.39857 11.0803C3.56569 11.0802 3.72848 11.0271 3.86355 10.9287L6.0015 9.38005L8.13796 10.9317C8.27318 11.0303 8.43622 11.0834 8.60357 11.0833C8.77091 11.0832 8.9339 11.03 9.06903 10.9313C9.20416 10.8325 9.30443 10.6935 9.35539 10.5341C9.40635 10.3747 9.40536 10.2032 9.35256 10.0444L8.53657 7.53636L10.673 5.9847C10.8086 5.88654 10.9096 5.74786 10.9613 5.58864C11.0131 5.42942 11.0129 5.25789 10.9609 5.09876C10.9089 4.93963 10.8077 4.80113 10.6719 4.70321C10.5361 4.60528 10.3728 4.553 10.2053 4.55389H7.56743L6.75219 2.04285C6.70009 1.88489 6.59948 1.7474 6.4647 1.64993C6.32992 1.55247 6.16783 1.5 6.0015 1.5C5.83518 1.5 5.67309 1.55247 5.53831 1.64993C5.40353 1.7474 5.30292 1.88489 5.25082 2.04285Z" fill="#191919"/>
</svg>
