<svg width="18" height="19" viewBox="0 0 18 19" fill="none" xmlns="http://www.w3.org/2000/svg">
<path d="M7.87623 2.81427L6.64886 6.58084H2.68749C2.43676 6.58046 2.19237 6.65957 1.98942 6.80681C1.78648 6.95405 1.63543 7.16183 1.55798 7.4003C1.48053 7.63877 1.48068 7.89565 1.55839 8.13403C1.6361 8.37242 1.78737 8.58003 1.99048 8.72705L5.19516 11.0545L3.97004 14.8166C3.89222 15.0549 3.89192 15.3117 3.96919 15.5502C4.04647 15.7887 4.19733 15.9965 4.40012 16.1439C4.6029 16.2912 4.84718 16.3706 5.09786 16.3704C5.34853 16.3703 5.59272 16.2907 5.79533 16.1431L9.00226 13.8201L12.2069 16.1476C12.4098 16.2954 12.6543 16.3751 12.9054 16.3749C13.1564 16.3748 13.4009 16.295 13.6035 16.1469C13.8062 15.9988 13.9567 15.7902 14.0331 15.5511C14.1095 15.312 14.108 15.0548 14.0288 14.8166L12.8049 11.0545L16.0095 8.72705C16.213 8.57981 16.3644 8.37179 16.442 8.13296C16.5196 7.89413 16.5194 7.63684 16.4414 7.39814C16.3633 7.15945 16.2115 6.95169 16.0079 6.80481C15.8042 6.65792 15.5591 6.5795 15.308 6.58084H11.3512L10.1283 2.81427C10.0501 2.57734 9.89923 2.37109 9.69706 2.2249C9.49488 2.0787 9.25175 2 9.00226 2C8.75276 2 8.50963 2.0787 8.30746 2.2249C8.10529 2.37109 7.95439 2.57734 7.87623 2.81427Z" fill="#E1E1E1"/>
</svg>
