<svg width="106" height="19" viewBox="0 0 106 19" fill="none" xmlns="http://www.w3.org/2000/svg">
<path d="M7.87623 2.81427L6.64886 6.58084H2.68749C2.43676 6.58046 2.19237 6.65957 1.98942 6.80681C1.78648 6.95405 1.63543 7.16183 1.55798 7.4003C1.48053 7.63877 1.48068 7.89565 1.55839 8.13403C1.6361 8.37242 1.78737 8.58003 1.99048 8.72705L5.19516 11.0545L3.97004 14.8166C3.89222 15.0549 3.89192 15.3117 3.96919 15.5502C4.04647 15.7887 4.19733 15.9965 4.40012 16.1439C4.6029 16.2912 4.84718 16.3706 5.09786 16.3704C5.34853 16.3703 5.59272 16.2907 5.79533 16.1431L9.00226 13.8201L12.2069 16.1476C12.4098 16.2954 12.6543 16.3751 12.9053 16.3749C13.1564 16.3748 13.4009 16.295 13.6035 16.1469C13.8062 15.9988 13.9567 15.7902 14.0331 15.5511C14.1095 15.312 14.108 15.0548 14.0288 14.8166L12.8049 11.0545L16.0095 8.72705C16.213 8.57981 16.3644 8.37179 16.442 8.13296C16.5196 7.89413 16.5194 7.63684 16.4414 7.39814C16.3633 7.15945 16.2115 6.95169 16.0079 6.80481C15.8042 6.65792 15.5591 6.5795 15.308 6.58084H11.3512L10.1283 2.81427C10.0501 2.57734 9.89923 2.37109 9.69705 2.2249C9.49488 2.0787 9.25175 2 9.00226 2C8.75277 2 8.50963 2.0787 8.30746 2.2249C8.10529 2.37109 7.95439 2.57734 7.87623 2.81427Z" fill="#FFC700"/>
<path d="M29.8762 2.81427L28.6489 6.58084H24.6875C24.4368 6.58046 24.1924 6.65957 23.9894 6.80681C23.7865 6.95405 23.6354 7.16183 23.558 7.4003C23.4805 7.63877 23.4807 7.89565 23.5584 8.13403C23.6361 8.37242 23.7874 8.58003 23.9905 8.72705L27.1952 11.0545L25.97 14.8166C25.8922 15.0549 25.8919 15.3117 25.9692 15.5502C26.0465 15.7887 26.1973 15.9965 26.4001 16.1439C26.6029 16.2912 26.8472 16.3706 27.0979 16.3704C27.3485 16.3703 27.5927 16.2907 27.7953 16.1431L31.0023 13.8201L34.2069 16.1476C34.4098 16.2954 34.6543 16.3751 34.9053 16.3749C35.1564 16.3748 35.4009 16.295 35.6035 16.1469C35.8062 15.9988 35.9567 15.7902 36.0331 15.5511C36.1095 15.312 36.108 15.0548 36.0288 14.8166L34.8049 11.0545L38.0095 8.72705C38.213 8.57981 38.3644 8.37179 38.442 8.13296C38.5196 7.89413 38.5194 7.63684 38.4414 7.39814C38.3633 7.15945 38.2115 6.95169 38.0079 6.80481C37.8042 6.65792 37.5591 6.5795 37.308 6.58084H33.3512L32.1283 2.81427C32.0501 2.57734 31.8992 2.37109 31.6971 2.2249C31.4949 2.0787 31.2517 2 31.0023 2C30.7528 2 30.5096 2.0787 30.3075 2.2249C30.1053 2.37109 29.9544 2.57734 29.8762 2.81427Z" fill="#FFC700"/>
<path d="M51.8762 2.81427L50.6489 6.58084H46.6875C46.4368 6.58046 46.1924 6.65957 45.9894 6.80681C45.7865 6.95405 45.6354 7.16183 45.558 7.4003C45.4805 7.63877 45.4807 7.89565 45.5584 8.13403C45.6361 8.37242 45.7874 8.58003 45.9905 8.72705L49.1952 11.0545L47.97 14.8166C47.8922 15.0549 47.8919 15.3117 47.9692 15.5502C48.0465 15.7887 48.1973 15.9965 48.4001 16.1439C48.6029 16.2912 48.8472 16.3706 49.0979 16.3704C49.3485 16.3703 49.5927 16.2907 49.7953 16.1431L53.0023 13.8201L56.2069 16.1476C56.4098 16.2954 56.6543 16.3751 56.9053 16.3749C57.1564 16.3748 57.4009 16.295 57.6035 16.1469C57.8062 15.9988 57.9567 15.7902 58.0331 15.5511C58.1095 15.312 58.108 15.0548 58.0288 14.8166L56.8049 11.0545L60.0095 8.72705C60.213 8.57981 60.3644 8.37179 60.442 8.13296C60.5196 7.89413 60.5194 7.63684 60.4414 7.39814C60.3633 7.15945 60.2115 6.95169 60.0079 6.80481C59.8042 6.65792 59.5591 6.5795 59.308 6.58084H55.3512L54.1283 2.81427C54.0501 2.57734 53.8992 2.37109 53.6971 2.2249C53.4949 2.0787 53.2517 2 53.0023 2C52.7528 2 52.5096 2.0787 52.3075 2.2249C52.1053 2.37109 51.9544 2.57734 51.8762 2.81427Z" fill="#FFC700"/>
<path d="M73.8762 2.81427L72.6489 6.58084H68.6875C68.4368 6.58046 68.1924 6.65957 67.9894 6.80681C67.7865 6.95405 67.6354 7.16183 67.558 7.4003C67.4805 7.63877 67.4807 7.89565 67.5584 8.13403C67.6361 8.37242 67.7874 8.58003 67.9905 8.72705L71.1952 11.0545L69.97 14.8166C69.8922 15.0549 69.8919 15.3117 69.9692 15.5502C70.0465 15.7887 70.1973 15.9965 70.4001 16.1439C70.6029 16.2912 70.8472 16.3706 71.0979 16.3704C71.3485 16.3703 71.5927 16.2907 71.7953 16.1431L75.0023 13.8201L78.2069 16.1476C78.4098 16.2954 78.6543 16.3751 78.9053 16.3749C79.1564 16.3748 79.4009 16.295 79.6035 16.1469C79.8062 15.9988 79.9567 15.7902 80.0331 15.5511C80.1095 15.312 80.108 15.0548 80.0288 14.8166L78.8049 11.0545L82.0095 8.72705C82.213 8.57981 82.3644 8.37179 82.442 8.13296C82.5196 7.89413 82.5194 7.63684 82.4414 7.39814C82.3633 7.15945 82.2115 6.95169 82.0079 6.80481C81.8042 6.65792 81.5591 6.5795 81.308 6.58084H77.3512L76.1283 2.81427C76.0501 2.57734 75.8992 2.37109 75.6971 2.2249C75.4949 2.0787 75.2517 2 75.0023 2C74.7528 2 74.5096 2.0787 74.3075 2.2249C74.1053 2.37109 73.9544 2.57734 73.8762 2.81427Z" fill="#FFC700"/>
<path d="M95.8762 2.81427L94.6489 6.58084H90.6875C90.4368 6.58046 90.1924 6.65957 89.9894 6.80681C89.7865 6.95405 89.6354 7.16183 89.558 7.4003C89.4805 7.63877 89.4807 7.89565 89.5584 8.13403C89.6361 8.37242 89.7874 8.58003 89.9905 8.72705L93.1952 11.0545L91.97 14.8166C91.8922 15.0549 91.8919 15.3117 91.9692 15.5502C92.0465 15.7887 92.1973 15.9965 92.4001 16.1439C92.6029 16.2912 92.8472 16.3706 93.0979 16.3704C93.3485 16.3703 93.5927 16.2907 93.7953 16.1431L97.0023 13.8201L100.207 16.1476C100.41 16.2954 100.654 16.3751 100.905 16.3749C101.156 16.3748 101.401 16.295 101.604 16.1469C101.806 15.9988 101.957 15.7902 102.033 15.5511C102.11 15.312 102.108 15.0548 102.029 14.8166L100.805 11.0545L104.01 8.72705C104.213 8.57981 104.364 8.37179 104.442 8.13296C104.52 7.89413 104.519 7.63684 104.441 7.39814C104.363 7.15945 104.212 6.95169 104.008 6.80481C103.804 6.65792 103.559 6.5795 103.308 6.58084H99.3512L98.1283 2.81427C98.0501 2.57734 97.8992 2.37109 97.6971 2.2249C97.4949 2.0787 97.2517 2 97.0023 2C96.7528 2 96.5096 2.0787 96.3075 2.2249C96.1053 2.37109 95.9544 2.57734 95.8762 2.81427Z" fill="#FFC700"/>
</svg>
