<svg width="24" height="24" viewBox="0 0 24 24" fill="none" xmlns="http://www.w3.org/2000/svg">
<path d="M16.0833 6.34472L11.9987 10.4293L7.91403 6.34472C7.48009 5.91078 6.77574 5.91078 6.34181 6.34472C5.90787 6.77865 5.90787 7.48301 6.34181 7.91694L10.4264 12.0016L6.34338 16.0846C5.90944 16.5186 5.90944 17.2229 6.34338 17.6569C6.77731 18.0908 7.48167 18.0908 7.9156 17.6569L12.0002 13.5722L16.0849 17.6569C16.5188 18.0908 17.2232 18.0908 17.6571 17.6569C18.091 17.2229 18.091 16.5186 17.6571 16.0846L13.5725 12L17.6571 7.91537C18.091 7.48144 18.091 6.77708 17.6571 6.34315C17.2232 5.90921 16.5188 5.90921 16.0849 6.34315L16.0833 6.34472Z" fill="white"/>
</svg>
