<svg width="24" height="24" viewBox="0 0 24 24" fill="none" xmlns="http://www.w3.org/2000/svg">
<path fill-rule="evenodd" clip-rule="evenodd" d="M21 12C21 16.9706 16.9706 21 12 21C7.02944 21 3 16.9706 3 12C3 7.02944 7.02944 3 12 3C16.9706 3 21 7.02944 21 12ZM9.32561 15.5191C9.50792 15.7429 9.7733 15.8606 10.0433 15.8606H10.0479C10.2395 15.8606 10.4333 15.8029 10.5995 15.6783L16.9525 10.9337C17.361 10.6291 17.4441 10.0499 17.1395 9.64139C16.8348 9.23293 16.2556 9.14986 15.8471 9.45447L10.2025 13.6683L8.32407 11.3537C8.0033 10.9568 7.42176 10.8968 7.02484 11.2175C6.62792 11.5406 6.56792 12.1199 6.88869 12.5168L9.32561 15.5191Z" fill="white"/>
</svg>
